<svg width="43" height="52" viewBox="0 0 43 52" fill="none" xmlns="http://www.w3.org/2000/svg">
<path d="M21.3333 52C24.2667 52 26.6667 49.6 26.6667 46.6667H16C16 49.6 18.4 52 21.3333 52ZM37.3333 36V22.6667C37.3333 14.48 32.9867 7.62667 25.3333 5.81333V4C25.3333 1.78667 23.5467 0 21.3333 0C19.12 0 17.3333 1.78667 17.3333 4V5.81333C9.70667 7.62667 5.33333 14.4533 5.33333 22.6667V36L0 41.3333V44H42.6667V41.3333L37.3333 36ZM32 38.6667H10.6667V22.6667C10.6667 16.0533 14.6933 10.6667 21.3333 10.6667C27.9733 10.6667 32 16.0533 32 22.6667V38.6667Z" fill="black"/>
</svg>
